<?xml version="1.0" encoding="iso-8859-1"?>
<!-- Uploaded to: SVG Repo, www.svgrepo.com, Generator: SVG Repo Mixer Tools -->
<svg height="800px" width="800px" version="1.1" id="Capa_1" xmlns="http://www.w3.org/2000/svg" xmlns:xlink="http://www.w3.org/1999/xlink" 
	 viewBox="0 0 464 464" xml:space="preserve">
<g>
	<path style="fill:#9EDCF1;" d="M313.563,136H376c0-17.673-14.327-32-32-32c-10.063,0-18.93,4.738-24.797,12.001
		c-2.26-0.815-4.663-1.335-7.203-1.335c-5.28,0-10.102,1.928-13.827,5.105C304.491,123.891,309.775,129.456,313.563,136z"/>
	<path style="fill:#9EDCF1;" d="M195,331c-9.12,0-17.156,4.294-22.472,10.876c-2.048-0.739-4.226-1.21-6.528-1.21
		c-10.677,0-19.333,8.656-19.333,19.333H224C224,343.984,211.016,331,195,331z"/>
	<path style="fill:#EBEBF0;" d="M104.601,223.936c0.419,0.021,0.838,0.033,1.26,0.031c1.141-0.004,2.379-0.008,3.697-0.011
		c0.308-0.001,0.622-0.002,0.94-0.003c0.912-0.002,1.86-0.005,2.848-0.007c8.66-0.022,20.164-0.042,33.737-0.061
		C145.318,223.468,144,221.892,144,220c0-2.209,1.791-4,4-4c2.209,0,4,1.791,4,4c0,1.889-1.314,3.463-3.075,3.882
		c9.182-0.013,19.269-0.025,30.031-0.037c-1.7-0.461-2.957-1.999-2.957-3.845c0-2.209,1.791-4,4-4c2.209,0,4,1.791,4,4
		c0,1.843-1.253,3.379-2.949,3.843c9.484-0.01,19.467-0.02,29.805-0.029C209.208,223.319,208,221.809,208,220c0-2.209,1.791-4,4-4
		c2.209,0,4,1.791,4,4c0,1.806-1.205,3.315-2.849,3.812c9.624-0.009,19.538-0.017,29.62-0.024c-1.604-0.521-2.771-2.01-2.771-3.787
		c0-2.209,1.791-4,4-4c2.209,0,4,1.791,4,4c0,1.775-1.164,3.263-2.765,3.786c9.711-0.007,19.568-0.014,29.462-0.021
		C273.132,223.222,272,221.75,272,220c0-2.209,1.791-4,4-4c2.209,0,4,1.791,4,4c0,1.748-1.129,3.219-2.692,3.763
		c9.783-0.006,19.593-0.013,29.325-0.018C305.1,223.184,304,221.727,304,220c0-2.209,1.791-4,4-4c2.209,0,4,1.791,4,4
		c0,1.725-1.098,3.181-2.628,3.743c9.862-0.006,19.633-0.011,29.204-0.016C337.073,223.152,336,221.706,336,220c0-2.209,1.791-4,4-4
		c2.209,0,4,1.791,4,4c0,1.704-1.07,3.149-2.572,3.726c9.973-0.005,19.714-0.01,29.098-0.014C369.048,223.124,368,221.688,368,220
		c0-2.209,1.791-4,4-4c2.209,0,4,1.791,4,4c0,1.686-1.046,3.122-2.523,3.71c10.165-0.005,19.89-0.009,29.007-0.012
		C401.028,223.101,400,221.672,400,220c0-2.209,1.791-4,4-4c2.209,0,4,1.791,4,4c0,1.671-1.026,3.099-2.481,3.698
		c14.417-0.005,27.22-0.009,37.744-0.011C441.346,223.08,440,221.658,440,220c0-2.209,2.388-4,5.333-4h14.132
		c1.39,2.4,2.563,4.943,3.304,7.684C459.091,210.069,446.777,200,432,200H120l-72-40H32l57.018,57.018
		C93.189,221.188,98.742,223.643,104.601,223.936z"/>
	<path style="fill:#D7DCE1;" d="M462.764,223.684c-4.853,0-11.462,0.001-19.5,0.003c0,0-0.001,0-0.001,0
		c-10.524,0.002-23.327,0.006-37.744,0.011C405.05,223.89,404.538,224,404,224c-0.537,0-1.048-0.109-1.516-0.302
		c-9.117,0.003-18.842,0.007-29.007,0.012c-0.458,0.182-0.954,0.29-1.477,0.29c-0.521,0-1.016-0.107-1.473-0.288
		c-9.385,0.004-19.125,0.009-29.098,0.014C340.984,223.896,340.505,224,340,224c-0.503,0-0.98-0.103-1.424-0.273
		c-9.571,0.005-19.342,0.01-29.204,0.016c-0.43,0.158-0.888,0.257-1.372,0.257c-0.482,0-0.939-0.099-1.367-0.255
		c-9.732,0.006-19.541,0.012-29.325,0.018C276.896,223.906,276.461,224,276,224c-0.459,0-0.892-0.093-1.303-0.235
		c-9.894,0.007-19.751,0.014-29.462,0.021C244.844,223.913,244.434,224,244,224c-0.432,0-0.84-0.086-1.229-0.213
		c-10.082,0.008-19.996,0.016-29.62,0.024C212.784,223.923,212.403,224,212,224c-0.4,0-0.779-0.077-1.144-0.186
		c-10.338,0.009-20.321,0.019-29.805,0.029C180.714,223.935,180.366,224,180,224c-0.363,0-0.709-0.064-1.043-0.155
		c-10.762,0.012-20.849,0.024-30.031,0.037C148.627,223.953,148.32,224,148,224c-0.317,0-0.622-0.046-0.917-0.116
		c-13.573,0.019-25.077,0.04-33.737,0.061c-0.987,0.002-1.936,0.005-2.848,0.007c-0.318,0.001-0.632,0.002-0.94,0.003
		c-1.316,0.004-2.554,0.007-3.697,0.011c-0.421,0.001-0.841-0.01-1.26-0.031c-5.86-0.292-11.412-2.747-15.583-6.918L32,160H0
		l52.795,64.527C64.951,239.384,83.132,248,102.328,248h70.116L192,232h112l-30.222,16H448c8.836,0,16-7.164,16-16
		C464,229.098,463.5,226.344,462.764,223.684z"/>
	<path style="fill:#6E6478;" d="M445.333,216c-2.946,0-5.333,1.791-5.333,4c0,1.658,1.346,3.08,3.263,3.686c0,0,0.001,0,0.001,0
		c8.038-0.002,14.647-0.003,19.5-0.003c0.002,0,0.004,0,0.006,0c-0.741-2.74-1.914-5.283-3.304-7.684H445.333z"/>
	<path style="fill:#6E6478;" d="M408,220c0-2.209-1.791-4-4-4c-2.209,0-4,1.791-4,4c0,1.672,1.028,3.101,2.484,3.698
		c0.468,0.192,0.978,0.302,1.516,0.302c0.538,0,1.05-0.11,1.519-0.302C406.974,223.099,408,221.671,408,220z"/>
	<path style="fill:#6E6478;" d="M376,220c0-2.209-1.791-4-4-4c-2.209,0-4,1.791-4,4c0,1.688,1.048,3.124,2.527,3.712
		c0.457,0.182,0.952,0.288,1.473,0.288c0.523,0,1.019-0.107,1.477-0.29C374.954,223.122,376,221.686,376,220z"/>
	<path style="fill:#6E6478;" d="M344,220c0-2.209-1.791-4-4-4c-2.209,0-4,1.791-4,4c0,1.706,1.073,3.152,2.576,3.727
		c0.444,0.17,0.92,0.273,1.424,0.273c0.505,0,0.984-0.104,1.428-0.274C342.93,223.149,344,221.704,344,220z"/>
	<path style="fill:#6E6478;" d="M312,220c0-2.209-1.791-4-4-4c-2.209,0-4,1.791-4,4c0,1.727,1.1,3.184,2.633,3.745
		c0.428,0.156,0.885,0.255,1.367,0.255c0.484,0,0.943-0.099,1.372-0.257C310.902,223.181,312,221.725,312,220z"/>
	<path style="fill:#6E6478;" d="M280,220c0-2.209-1.791-4-4-4c-2.209,0-4,1.791-4,4c0,1.75,1.132,3.222,2.697,3.765
		c0.41,0.142,0.844,0.235,1.303,0.235c0.461,0,0.896-0.094,1.308-0.237C278.871,223.219,280,221.748,280,220z"/>
	<path style="fill:#6E6478;" d="M248,220c0-2.209-1.791-4-4-4c-2.209,0-4,1.791-4,4c0,1.777,1.167,3.266,2.771,3.787
		c0.39,0.127,0.797,0.213,1.229,0.213c0.434,0,0.844-0.087,1.235-0.214C246.836,223.263,248,221.775,248,220z"/>
	<path style="fill:#6E6478;" d="M216,220c0-2.209-1.791-4-4-4c-2.209,0-4,1.791-4,4c0,1.809,1.208,3.319,2.856,3.814
		C211.221,223.923,211.6,224,212,224c0.403,0,0.784-0.077,1.151-0.188C214.795,223.315,216,221.806,216,220z"/>
	<path style="fill:#6E6478;" d="M184,220c0-2.209-1.791-4-4-4c-2.209,0-4,1.791-4,4c0,1.846,1.257,3.384,2.957,3.845
		c0.335,0.091,0.68,0.155,1.043,0.155c0.366,0,0.714-0.065,1.051-0.157C182.747,223.379,184,221.843,184,220z"/>
	<path style="fill:#6E6478;" d="M152,220c0-2.209-1.791-4-4-4c-2.209,0-4,1.791-4,4c0,1.892,1.318,3.468,3.083,3.884
		c0.296,0.07,0.6,0.116,0.917,0.116c0.32,0,0.627-0.047,0.925-0.118C150.686,223.463,152,221.889,152,220z"/>
	<path style="fill:#D7DCE1;" d="M252,280c6.627,0,12-5.373,12-12c0-4.926-2.971-9.155-7.217-11.003L213.333,280H252z"/>
	<path style="fill:#BEC3C8;" d="M192,232l-19.556,16L104,304h58.039c3.915,0,7.77-0.958,11.229-2.789L213.333,280l43.45-23.003
		L273.778,248L304,232H192z"/>
	<path style="fill:#CCEFFC;" d="M313.563,136c-3.787-6.544-9.071-12.109-15.39-16.228C290.644,114.863,281.659,112,272,112
		c-15.095,0-28.396,7.107-37.195,18.002C231.415,128.779,227.811,128,224,128c-17.673,0-32,14.326-32,32h128
		C320,151.254,317.649,143.062,313.563,136z"/>
	<path style="fill:#CCEFFC;" d="M351,303c-10.378,0-19.522,4.886-25.572,12.376C323.098,314.536,320.62,314,318,314
		c-12.15,0-22,9.849-22,22h88C384,317.775,369.225,303,351,303z"/>
</g>
</svg>